<svg width="400" height="400" viewBox="0 0 400 400" fill="none" xmlns="http://www.w3.org/2000/svg">
<g clip-path="url(#clip0_89_176)">
<path d="M200 398.552C309.658 398.552 398.552 309.658 398.552 200C398.552 90.3425 309.658 1.44754 200 1.44754C90.3425 1.44754 1.44751 90.3425 1.44751 200C1.44751 309.658 90.3425 398.552 200 398.552Z" fill="#1B1919" stroke="#FAFAFA" stroke-width="2.89504"/>
<path d="M63.2865 288.156H337.844" stroke="#0CC0DF" stroke-width="12"/>
<path d="M63.2865 95.5625H336.714" stroke="white" stroke-width="12"/>
<path d="M70.0625 253.385L69.2812 90.6251" stroke="white" stroke-width="12"/>
<path d="M147.429 212.165H159.346V163.774L188.252 212.165H200.653V143.17H188.736V191.461L159.736 143.17H147.429V212.165Z" fill="#0CC0DF"/>
<path d="M218.425 212.165H260.321V200.446H230.826V143.17H218.425V212.165Z" fill="#0CC0DF"/>
<path d="M167.17 236.67V251.227L153.066 236.67H151.201V252.664H152.586V238.107L166.691 252.664H168.555V236.67H167.17Z" fill="white"/>
<path d="M191.214 237.894V236.67H175.698V252.664H191.214V251.441H177.084V245.493H190.224V244.269H177.084V237.894H191.214Z" fill="white"/>
<path d="M211.416 236.67H209.474L202.458 243.68L195.422 236.67H193.474L201.474 244.664L193.474 252.664H195.422L202.458 245.628L209.474 252.664H211.416L203.422 244.664L211.416 236.67Z" fill="white"/>
<path d="M230.879 237.894V236.67H215.363V252.664H230.879V251.441H216.748V245.493H229.889V244.269H216.748V237.894H230.879Z" fill="white"/>
<path d="M237.701 236.67H236.315V252.664H251.029V251.441H237.701V236.67Z" fill="white"/>
<path d="M331.839 253.417L330.708 90.625" stroke="white" stroke-width="12"/>
</g>
<defs>
<clipPath id="clip0_89_176">
<rect width="400" height="400" fill="white"/>
</clipPath>
</defs>
</svg>
