<svg width="275" height="206" viewBox="0 0 275 206" fill="none" xmlns="http://www.w3.org/2000/svg">
<g clip-path="url(#clip0_89_177)">
<path d="M0.286499 199.156H274.844" stroke="#0CC0DF" stroke-width="12"/>
<path d="M0.286499 6.5625H273.714" stroke="#1B1919" stroke-width="12"/>
<path d="M7.0625 164.385L6.28125 1.62507" stroke="#1B1919" stroke-width="12"/>
<path d="M84.4292 123.165H96.3459V74.7739L125.252 123.165H137.653V54.1697H125.736V102.461L96.7365 54.1697H84.4292V123.165Z" fill="#0CC0DF"/>
<path d="M155.425 123.165H197.321V111.446H167.826V54.1697H155.425V123.165Z" fill="#0CC0DF"/>
<path d="M104.17 147.67V162.227L90.0655 147.67H88.2009V163.664H89.5863V149.107L103.691 163.664H105.555V147.67H104.17Z" fill="#1B1919"/>
<path d="M128.214 148.894V147.67H112.698V163.664H128.214V162.44H114.084V156.493H127.224V155.269H114.084V148.894H128.214Z" fill="#1B1919"/>
<path d="M148.416 147.67H146.474L139.458 154.68L132.421 147.67H130.474L138.474 155.664L130.474 163.664H132.421L139.458 156.628L146.474 163.664H148.416L140.421 155.664L148.416 147.67Z" fill="#1B1919"/>
<path d="M167.878 148.894V147.67H152.363V163.664H167.878V162.44H153.748V156.493H166.889V155.269H153.748V148.894H167.878Z" fill="#1B1919"/>
<path d="M174.701 147.67H173.315V163.664H188.029V162.44H174.701V147.67Z" fill="#1B1919"/>
<path d="M268.839 164.417L267.708 1.62498" stroke="#1B1919" stroke-width="12"/>
</g>
<defs>
<clipPath id="clip0_89_177">
<rect width="275" height="206" fill="white"/>
</clipPath>
</defs>
</svg>
